<svg xmlns="http://www.w3.org/2000/svg" xmlns:xlink="http://www.w3.org/1999/xlink" id="processonSvg1000" viewBox="291.8333282470703 234.5 663.0 553.0" width="663.0" height="553.0"><defs id="ProcessOnDefs1001"/><g id="ProcessOnG1002"><path id="ProcessOnPath1003" d="M291.8333282470703 234.5H954.8333282470703V787.5H291.8333282470703V234.5Z" fill="#ffffff"/><g id="ProcessOnG1004"><g id="ProcessOnG1005" transform="matrix(1.0,0.0,0.0,1.0,311.8333282470703,254.5)" opacity="1.0"><path id="ProcessOnPath1006" d="M0.0 0.0L623.0 0.0L623.0 513.0L0.0 513.0Z" stroke="#8a8a8a" stroke-width="2.0" stroke-dasharray="none" opacity="1.0" fill="#ffffff"/></g><g id="ProcessOnG1007" transform="matrix(1.0,0.0,0.0,1.0,489.3333282470703,348.5)" opacity="1.0"><path id="ProcessOnPath1008" d="M0.5 0.5L224.5 0.5L224.5 24.5L0.5 24.5Z" stroke="#8a8a8a" stroke-width="1.0" stroke-dasharray="none" opacity="1.0" fill="#ffffff"/></g><g id="ProcessOnG1009" transform="matrix(1.0,0.0,0.0,1.0,489.3333282470703,434.5)" opacity="1.0"><path id="ProcessOnPath1010" d="M0.5 0.5L224.5 0.5L224.5 24.5L0.5 24.5Z" stroke="#8a8a8a" stroke-width="1.0" stroke-dasharray="none" opacity="1.0" fill="#ffffff"/></g><g id="ProcessOnG1011" transform="matrix(1.0,0.0,0.0,1.0,489.3333282470703,578.0)" opacity="1.0"><path id="ProcessOnPath1012" d="M0.0 4.0Q0.0 0.0 4.0 0.0L221.0 0.0Q225.0 0.0 225.0 4.0L225.0 32.0Q225.0 36.0 221.0 36.0L4.0 36.0Q0.0 36.0 0.0 32.0Z" stroke="#323232" stroke-width="0.0" stroke-dasharray="none" opacity="1.0" fill="#006633"/><g id="ProcessOnG1013" transform="matrix(1.0,0.0,0.0,1.0,0.0,9.25)"><text id="ProcessOnText1014" fill="#ffffff" font-weight="normal" font-style="normal" text-decoration="none" font-family="微软雅黑" text-anchor="middle" font-size="14" x="111.5" y="14.350000000000001">登录</text></g></g><g id="ProcessOnG1015" transform="matrix(1.0,0.0,0.0,1.0,473.3333282470703,301.5)" opacity="1.0"><path id="ProcessOnPath1016" d="M0.0 0.0L80.0 0.0L80.0 25.0L0.0 25.0Z" stroke="#323232" stroke-width="0.0" stroke-dasharray="none" opacity="1.0" fill="none"/><g id="ProcessOnG1017" transform="matrix(1.0,0.0,0.0,1.0,0.0,3.75)"><text id="ProcessOnText1018" fill="#000000" font-weight="normal" font-style="normal" text-decoration="none" font-family="微软雅黑" text-anchor="middle" font-size="14" x="39.0" y="14.350000000000001">用户名</text></g></g><g id="ProcessOnG1019" transform="matrix(1.0,0.0,0.0,1.0,464.3333282470703,398.5)" opacity="1.0"><path id="ProcessOnPath1020" d="M0.0 0.0L80.0 0.0L80.0 25.0L0.0 25.0Z" stroke="#323232" stroke-width="0.0" stroke-dasharray="none" opacity="1.0" fill="none"/><g id="ProcessOnG1021" transform="matrix(1.0,0.0,0.0,1.0,0.0,3.75)"><text id="ProcessOnText1022" fill="#000000" font-weight="normal" font-style="normal" text-decoration="none" font-family="微软雅黑" text-anchor="middle" font-size="14" x="39.0" y="14.350000000000001">密码</text></g></g><g id="ProcessOnG1023" transform="matrix(1.0,0.0,0.0,1.0,489.3333282470703,501.0)" opacity="1.0"><path id="ProcessOnPath1024" d="M0.0 3.0L14.0 3.0L14.0 17.0L0.0 17.0Z" stroke="#5c5c5c" stroke-width="2.0" stroke-dasharray="none" opacity="1.0" fill="#ffffff"/><path id="ProcessOnPath1025" d="M0.0 0.0L120.0 0.0L120.0 20.0L0.0 20.0Z" stroke="#5c5c5c" stroke-width="0.0" stroke-dasharray="none" opacity="1.0" fill="none"/><g id="ProcessOnG1026" transform="matrix(1.0,0.0,0.0,1.0,20.0,1.25)"><text id="ProcessOnText1027" fill="#000000" font-weight="normal" font-style="normal" text-decoration="none" font-family="微软雅黑" text-anchor="start" font-size="14" x="0.0" y="14.350000000000001">自动登录</text></g></g><g id="ProcessOnG1028" transform="matrix(1.0,0.0,0.0,1.0,624.3333282470703,501.0)" opacity="1.0"><path id="ProcessOnPath1029" d="M0.0 3.0L14.0 3.0L14.0 17.0L0.0 17.0Z" stroke="#5c5c5c" stroke-width="2.0" stroke-dasharray="none" opacity="1.0" fill="#ffffff"/><path id="ProcessOnPath1030" d="M0.0 0.0L120.0 0.0L120.0 20.0L0.0 20.0Z" stroke="#5c5c5c" stroke-width="0.0" stroke-dasharray="none" opacity="1.0" fill="none"/><g id="ProcessOnG1031" transform="matrix(1.0,0.0,0.0,1.0,20.0,1.25)"><text id="ProcessOnText1032" fill="#000000" font-weight="normal" font-style="normal" text-decoration="none" font-family="微软雅黑" text-anchor="start" font-size="14" x="0.0" y="14.350000000000001">记住密码</text></g></g><g id="ProcessOnG1033" transform="matrix(1.0,0.0,0.0,1.0,640.3333282470703,398.5)" opacity="1.0"><path id="ProcessOnPath1034" d="M0.0 0.0L80.0 0.0L80.0 25.0L0.0 25.0Z" stroke="#323232" stroke-width="0.0" stroke-dasharray="none" opacity="1.0" fill="none"/><g id="ProcessOnG1035" transform="matrix(1.0,0.0,0.0,1.0,0.0,3.75)"><text id="ProcessOnText1036" fill="#006633" font-weight="normal" font-style="normal" text-decoration="underline" font-family="微软雅黑" text-anchor="middle" font-size="14" x="39.0" y="14.350000000000001">忘记密码？</text></g></g><g id="ProcessOnG1037" transform="matrix(1.0,0.0,0.0,1.0,433.3333282470703,687.5)" opacity="1.0"><path id="ProcessOnPath1038" d="M0.0 0.0L80.0 0.0L80.0 25.0L0.0 25.0Z" stroke="#323232" stroke-width="0.0" stroke-dasharray="none" opacity="1.0" fill="none"/><g id="ProcessOnG1039" transform="matrix(1.0,0.0,0.0,1.0,0.0,3.75)"><text id="ProcessOnText1040" fill="#000000" font-weight="normal" font-style="normal" text-decoration="none" font-family="微软雅黑" text-anchor="middle" font-size="14" x="39.0" y="14.350000000000001">快速登录</text></g></g><g id="ProcessOnG1041" transform="matrix(1.0,0.0,0.0,1.0,539.3333282470703,677.25)" opacity="1.0"><path id="ProcessOnPath1042" d="M0.0 0.0L42.0 0.0L42.0 45.5L0.0 45.5Z" stroke="#8a8a8a" stroke-width="2.0" stroke-dasharray="none" opacity="1.0" fill="#ffffff"/><path id="ProcessOnPath1043" d="M22.307692307692307 15.6875C37.30769230769231 15.6875 37.30769230769231 37.6875 22.307692307692307 37.6875C7.307692307692307 37.6875 7.307692307692307 15.6875 22.307692307692307 15.6875Z" stroke="#505050" stroke-width="1.0" stroke-dasharray="none" opacity="1.0" fill="#505050"/><path id="ProcessOnPath1044" d="M30.0 15.5L14.0 40.0L21.0 22.75L26.25 18.2L12.0 15.5Z" stroke="#8a8a8a" stroke-width="0.0" stroke-dasharray="none" opacity="1.0" fill="#505050"/><path id="ProcessOnPath1045" d="M0.0 0.0L42.0 0.0L42.0 45.5L0.0 45.5Z" stroke="#8a8a8a" stroke-width="0.0" stroke-dasharray="none" opacity="1.0" fill="none"/></g><g id="ProcessOnG1046" transform="matrix(1.0,0.0,0.0,1.0,602.3333282470703,677.25)" opacity="1.0"><path id="ProcessOnPath1047" d="M0.0 0.0L42.0 0.0L42.0 45.5L0.0 45.5Z" stroke="#8a8a8a" stroke-width="2.0" stroke-dasharray="none" opacity="1.0" fill="#ffffff"/><path id="ProcessOnPath1048" d="M22.307692307692307 15.6875C37.30769230769231 15.6875 37.30769230769231 37.6875 22.307692307692307 37.6875C7.307692307692307 37.6875 7.307692307692307 15.6875 22.307692307692307 15.6875Z" stroke="#505050" stroke-width="1.0" stroke-dasharray="none" opacity="1.0" fill="#505050"/><path id="ProcessOnPath1049" d="M30.0 15.5L14.0 40.0L21.0 22.75L26.25 18.2L12.0 15.5Z" stroke="#8a8a8a" stroke-width="0.0" stroke-dasharray="none" opacity="1.0" fill="#505050"/><path id="ProcessOnPath1050" d="M0.0 0.0L42.0 0.0L42.0 45.5L0.0 45.5Z" stroke="#8a8a8a" stroke-width="0.0" stroke-dasharray="none" opacity="1.0" fill="none"/></g><g id="ProcessOnG1051" transform="matrix(1.0,0.0,0.0,1.0,664.3333282470703,677.25)" opacity="1.0"><path id="ProcessOnPath1052" d="M0.0 0.0L42.0 0.0L42.0 45.5L0.0 45.5Z" stroke="#8a8a8a" stroke-width="2.0" stroke-dasharray="none" opacity="1.0" fill="#ffffff"/><path id="ProcessOnPath1053" d="M22.307692307692307 15.6875C37.30769230769231 15.6875 37.30769230769231 37.6875 22.307692307692307 37.6875C7.307692307692307 37.6875 7.307692307692307 15.6875 22.307692307692307 15.6875Z" stroke="#505050" stroke-width="1.0" stroke-dasharray="none" opacity="1.0" fill="#505050"/><path id="ProcessOnPath1054" d="M30.0 15.5L14.0 40.0L21.0 22.75L26.25 18.2L12.0 15.5Z" stroke="#8a8a8a" stroke-width="0.0" stroke-dasharray="none" opacity="1.0" fill="#505050"/><path id="ProcessOnPath1055" d="M0.0 0.0L42.0 0.0L42.0 45.5L0.0 45.5Z" stroke="#8a8a8a" stroke-width="0.0" stroke-dasharray="none" opacity="1.0" fill="none"/></g><g id="ProcessOnG1056" transform="matrix(1.0,0.0,0.0,1.0,728.3333282470703,677.25)" opacity="1.0"><path id="ProcessOnPath1057" d="M0.0 0.0L42.0 0.0L42.0 45.5L0.0 45.5Z" stroke="#8a8a8a" stroke-width="2.0" stroke-dasharray="none" opacity="1.0" fill="#ffffff"/><path id="ProcessOnPath1058" d="M22.307692307692307 15.6875C37.30769230769231 15.6875 37.30769230769231 37.6875 22.307692307692307 37.6875C7.307692307692307 37.6875 7.307692307692307 15.6875 22.307692307692307 15.6875Z" stroke="#505050" stroke-width="1.0" stroke-dasharray="none" opacity="1.0" fill="#505050"/><path id="ProcessOnPath1059" d="M30.0 15.5L14.0 40.0L21.0 22.75L26.25 18.2L12.0 15.5Z" stroke="#8a8a8a" stroke-width="0.0" stroke-dasharray="none" opacity="1.0" fill="#505050"/><path id="ProcessOnPath1060" d="M0.0 0.0L42.0 0.0L42.0 45.5L0.0 45.5Z" stroke="#8a8a8a" stroke-width="0.0" stroke-dasharray="none" opacity="1.0" fill="none"/></g></g></g></svg>