<svg xmlns="http://www.w3.org/2000/svg" xmlns:xlink="http://www.w3.org/1999/xlink" id="processonSvg1000" viewBox="228.01171875 171.50390625 841.0 662.0" width="841.0" height="662.0"><defs id="ProcessOnDefs1001"/><g id="ProcessOnG1002"><path id="ProcessOnPath1003" d="M228.01171875 171.50390625H1069.01171875V833.50390625H228.01171875V171.50390625Z" fill="none"/><g id="ProcessOnG1004"><g id="ProcessOnG1005" transform="matrix(1.0,0.0,0.0,1.0,248.01171875,191.50390625)" opacity="1.0"><path id="ProcessOnPath1006" d="M0.0 0.0L801.0 0.0L801.0 622.0L0.0 622.0Z" stroke="#8a8a8a" stroke-width="2.0" stroke-dasharray="none" opacity="1.0" fill="#ffffff"/></g><g id="ProcessOnG1007" transform="matrix(1.0,0.0,0.0,1.0,454.51171875,254.00390625)" opacity="1.0"><path id="ProcessOnPath1008" d="M0.5 0.5L282.5 0.5L282.5 24.5L0.5 24.5Z" stroke="#8a8a8a" stroke-width="1.0" stroke-dasharray="none" opacity="1.0" fill="#ffffff"/></g><g id="ProcessOnG1009" transform="matrix(1.0,0.0,0.0,1.0,736.01171875,254.00390625)" opacity="1.0"><path id="ProcessOnPath1010" d="M0.0 0.0L114.0 0.0L114.0 25.0L0.0 25.0Z" stroke="#ff0080" stroke-width="0.0" stroke-dasharray="none" opacity="1.0" fill="none"/><g id="ProcessOnG1011" transform="matrix(1.0,0.0,0.0,1.0,0.0,3.75)"><text id="ProcessOnText1012" fill="#cc0000" font-weight="normal" font-style="normal" text-decoration="none" font-family="微软雅黑" text-anchor="middle" font-size="14" x="56.0" y="14.350000000000001">*（必填）</text></g></g><g id="ProcessOnG1013" transform="matrix(1.0,0.0,0.0,1.0,436.01171875,221.00390625)" opacity="1.0"><path id="ProcessOnPath1014" d="M0.0 0.0L80.0 0.0L80.0 25.0L0.0 25.0Z" stroke="#323232" stroke-width="0.0" stroke-dasharray="none" opacity="1.0" fill="none"/><g id="ProcessOnG1015" transform="matrix(1.0,0.0,0.0,1.0,0.0,3.75)"><text id="ProcessOnText1016" fill="#000000" font-weight="normal" font-style="normal" text-decoration="none" font-family="微软雅黑" text-anchor="middle" font-size="14" x="39.0" y="14.350000000000001">用户名</text></g></g><g id="ProcessOnG1017" transform="matrix(1.0,0.0,0.0,1.0,430.01171875,295.00390625)" opacity="1.0"><path id="ProcessOnPath1018" d="M0.0 0.0L80.0 0.0L80.0 25.0L0.0 25.0Z" stroke="#323232" stroke-width="0.0" stroke-dasharray="none" opacity="1.0" fill="none"/><g id="ProcessOnG1019" transform="matrix(1.0,0.0,0.0,1.0,0.0,3.75)"><text id="ProcessOnText1020" fill="#000000" font-weight="normal" font-style="normal" text-decoration="none" font-family="微软雅黑" text-anchor="middle" font-size="14" x="39.0" y="14.350000000000001">密码</text></g></g><g id="ProcessOnG1021" transform="matrix(1.0,0.0,0.0,1.0,443.01171875,372.00390625)" opacity="1.0"><path id="ProcessOnPath1022" d="M0.0 0.0L80.0 0.0L80.0 25.0L0.0 25.0Z" stroke="#323232" stroke-width="0.0" stroke-dasharray="none" opacity="1.0" fill="none"/><g id="ProcessOnG1023" transform="matrix(1.0,0.0,0.0,1.0,0.0,3.75)"><text id="ProcessOnText1024" fill="#000000" font-weight="normal" font-style="normal" text-decoration="none" font-family="微软雅黑" text-anchor="middle" font-size="14" x="39.0" y="14.350000000000001">确认密码</text></g></g><g id="ProcessOnG1025" transform="matrix(1.0,0.0,0.0,1.0,680.51171875,560.87890625)" opacity="1.0"><path id="ProcessOnPath1026" d="M0.0 0.0L107.0 0.0L107.0 25.0L0.0 25.0Z" stroke="#000000" stroke-width="0.0" stroke-dasharray="none" opacity="1.0" fill="none"/><g id="ProcessOnG1027" transform="matrix(1.0,0.0,0.0,1.0,0.0,3.75)"><text id="ProcessOnText1028" fill="#000000" font-weight="normal" font-style="normal" text-decoration="none" font-family="微软雅黑" text-anchor="middle" font-size="14" x="52.5" y="14.350000000000001">获取验证码</text></g></g><g id="ProcessOnG1029" transform="matrix(1.0,0.0,0.0,1.0,430.01171875,449.00390625)" opacity="1.0"><path id="ProcessOnPath1030" d="M0.0 0.0L80.0 0.0L80.0 25.0L0.0 25.0Z" stroke="#323232" stroke-width="0.0" stroke-dasharray="none" opacity="1.0" fill="none"/><g id="ProcessOnG1031" transform="matrix(1.0,0.0,0.0,1.0,0.0,3.75)"><text id="ProcessOnText1032" fill="#000000" font-weight="normal" font-style="normal" text-decoration="none" font-family="微软雅黑" text-anchor="middle" font-size="14" x="39.0" y="14.350000000000001">邮箱</text></g></g><g id="ProcessOnG1033" transform="matrix(1.0,0.0,0.0,1.0,454.51171875,559.25390625)" opacity="1.0"><path id="ProcessOnPath1034" d="M0.5 0.5L225.5 0.5L225.5 27.5L0.5 27.5Z" stroke="#8a8a8a" stroke-width="1.0" stroke-dasharray="none" opacity="1.0" fill="#ffffff"/><g id="ProcessOnG1035" transform="matrix(1.0,0.0,0.0,1.0,10.0,5.375)"><text id="ProcessOnText1036" fill="#000000" font-weight="normal" font-style="normal" text-decoration="none" font-family="微软雅黑" text-anchor="start" font-size="14" x="0.0" y="14.350000000000001">仅支持大陆手机号</text></g></g><g id="ProcessOnG1037" transform="matrix(1.0,0.0,0.0,1.0,447.01171875,528.00390625)" opacity="1.0"><path id="ProcessOnPath1038" d="M0.0 0.0L80.0 0.0L80.0 25.0L0.0 25.0Z" stroke="#323232" stroke-width="0.0" stroke-dasharray="none" opacity="1.0" fill="none"/><g id="ProcessOnG1039" transform="matrix(1.0,0.0,0.0,1.0,0.0,3.75)"><text id="ProcessOnText1040" fill="#000000" font-weight="normal" font-style="normal" text-decoration="none" font-family="微软雅黑" text-anchor="middle" font-size="14" x="39.0" y="14.350000000000001">手机号码</text></g></g><g id="ProcessOnG1041" transform="matrix(1.0,0.0,0.0,1.0,454.51171875,611.00390625)" opacity="1.0"><path id="ProcessOnPath1042" d="M0.0 0.0L80.0 0.0L80.0 25.0L0.0 25.0Z" stroke="#323232" stroke-width="0.0" stroke-dasharray="none" opacity="1.0" fill="none"/><g id="ProcessOnG1043" transform="matrix(1.0,0.0,0.0,1.0,0.0,3.75)"><text id="ProcessOnText1044" fill="#000000" font-weight="normal" font-style="normal" text-decoration="none" font-family="微软雅黑" text-anchor="middle" font-size="14" x="39.0" y="14.350000000000001">短信验证码</text></g></g><g id="ProcessOnG1045" transform="matrix(1.0,0.0,0.0,1.0,457.51171875,726.50390625)" opacity="1.0"><path id="ProcessOnPath1046" d="M0.0 4.0Q0.0 0.0 4.0 0.0L276.0 0.0Q280.0 0.0 280.0 4.0L280.0 25.0Q280.0 29.0 276.0 29.0L4.0 29.0Q0.0 29.0 0.0 25.0Z" stroke="#323232" stroke-width="0.0" stroke-dasharray="none" opacity="1.0" fill="#006633"/><g id="ProcessOnG1047" transform="matrix(1.0,0.0,0.0,1.0,0.0,5.75)"><text id="ProcessOnText1048" fill="#ffffff" font-weight="normal" font-style="normal" text-decoration="none" font-family="微软雅黑" text-anchor="middle" font-size="14" x="139.0" y="14.350000000000001">注册</text></g></g><g id="ProcessOnG1049" transform="matrix(1.0,0.0,0.0,1.0,453.01171875,325.00390625)" opacity="1.0"><path id="ProcessOnPath1050" d="M0.5 0.5L282.5 0.5L282.5 24.5L0.5 24.5Z" stroke="#8a8a8a" stroke-width="1.0" stroke-dasharray="none" opacity="1.0" fill="#ffffff"/><g id="ProcessOnG1051" transform="matrix(1.0,0.0,0.0,1.0,10.0,3.75)"><text id="ProcessOnText1052" fill="#000000" font-weight="normal" font-style="normal" text-decoration="none" font-family="微软雅黑" text-anchor="start" font-size="14" x="0.0" y="14.350000000000001">不少于6位</text></g></g><g id="ProcessOnG1053" transform="matrix(1.0,0.0,0.0,1.0,454.51171875,406.00390625)" opacity="1.0"><path id="ProcessOnPath1054" d="M0.5 0.5L282.5 0.5L282.5 24.5L0.5 24.5Z" stroke="#8a8a8a" stroke-width="1.0" stroke-dasharray="none" opacity="1.0" fill="#ffffff"/></g><g id="ProcessOnG1055" transform="matrix(1.0,0.0,0.0,1.0,454.51171875,484.00390625)" opacity="1.0"><path id="ProcessOnPath1056" d="M0.5 0.5L282.5 0.5L282.5 24.5L0.5 24.5Z" stroke="#8a8a8a" stroke-width="1.0" stroke-dasharray="none" opacity="1.0" fill="#ffffff"/></g><g id="ProcessOnG1057" transform="matrix(1.0,0.0,0.0,1.0,454.51171875,645.00390625)" opacity="1.0"><path id="ProcessOnPath1058" d="M0.5 0.5L282.5 0.5L282.5 24.5L0.5 24.5Z" stroke="#8a8a8a" stroke-width="1.0" stroke-dasharray="none" opacity="1.0" fill="#ffffff"/></g><g id="ProcessOnG1059" transform="matrix(1.0,0.0,0.0,1.0,736.01171875,331.00390625)" opacity="1.0"><path id="ProcessOnPath1060" d="M0.0 0.0L114.0 0.0L114.0 25.0L0.0 25.0Z" stroke="#ff0080" stroke-width="0.0" stroke-dasharray="none" opacity="1.0" fill="none"/><g id="ProcessOnG1061" transform="matrix(1.0,0.0,0.0,1.0,0.0,3.75)"><text id="ProcessOnText1062" fill="#cc0000" font-weight="normal" font-style="normal" text-decoration="none" font-family="微软雅黑" text-anchor="middle" font-size="14" x="56.0" y="14.350000000000001">*（必填）</text></g></g><g id="ProcessOnG1063" transform="matrix(1.0,0.0,0.0,1.0,737.51171875,406.00390625)" opacity="1.0"><path id="ProcessOnPath1064" d="M0.0 0.0L114.0 0.0L114.0 25.0L0.0 25.0Z" stroke="#ff0080" stroke-width="0.0" stroke-dasharray="none" opacity="1.0" fill="none"/><g id="ProcessOnG1065" transform="matrix(1.0,0.0,0.0,1.0,0.0,3.75)"><text id="ProcessOnText1066" fill="#cc0000" font-weight="normal" font-style="normal" text-decoration="none" font-family="微软雅黑" text-anchor="middle" font-size="14" x="56.0" y="14.350000000000001">*（必填）</text></g></g><g id="ProcessOnG1067" transform="matrix(1.0,0.0,0.0,1.0,737.51171875,490.00390625)" opacity="1.0"><path id="ProcessOnPath1068" d="M0.0 0.0L114.0 0.0L114.0 25.0L0.0 25.0Z" stroke="#ff0080" stroke-width="0.0" stroke-dasharray="none" opacity="1.0" fill="none"/><g id="ProcessOnG1069" transform="matrix(1.0,0.0,0.0,1.0,0.0,3.75)"><text id="ProcessOnText1070" fill="#cc0000" font-weight="normal" font-style="normal" text-decoration="none" font-family="微软雅黑" text-anchor="middle" font-size="14" x="56.0" y="14.350000000000001">*（必填）</text></g></g></g></g></svg>