<svg xmlns="http://www.w3.org/2000/svg" xmlns:xlink="http://www.w3.org/1999/xlink" id="processonSvg1000" viewBox="228.01171875 171.50390625 841.0 662.0" width="841.0" height="662.0"><defs id="ProcessOnDefs1001"/><g id="ProcessOnG1002"><path id="ProcessOnPath1003" d="M228.01171875 171.50390625H1069.01171875V833.50390625H228.01171875V171.50390625Z" fill="none"/><g id="ProcessOnG1004"><g id="ProcessOnG1005" transform="matrix(1.0,0.0,0.0,1.0,248.01171875,191.50390625)" opacity="1.0"><path id="ProcessOnPath1006" d="M0.0 0.0L801.0 0.0L801.0 622.0L0.0 622.0Z" stroke="#8a8a8a" stroke-width="2.0" stroke-dasharray="none" opacity="1.0" fill="#ffffff"/></g><g id="ProcessOnG1007" transform="matrix(1.0,0.0,0.0,1.0,454.51171875,254.00390625)" opacity="1.0"><path id="ProcessOnPath1008" d="M0.5 0.5L282.5 0.5L282.5 24.5L0.5 24.5Z" stroke="#8a8a8a" stroke-width="1.0" stroke-dasharray="none" opacity="1.0" fill="#ffffff"/><g id="ProcessOnG1009" transform="matrix(1.0,0.0,0.0,1.0,10.0,3.75)"><text id="ProcessOnText1010" fill="#000000" font-weight="normal" font-style="normal" text-decoration="none" font-family="微软雅黑" text-anchor="start" font-size="14" x="0.0" y="14.350000000000001">请输入用户名</text></g></g><g id="ProcessOnG1011" transform="matrix(1.0,0.0,0.0,1.0,736.01171875,254.00390625)" opacity="1.0"><path id="ProcessOnPath1012" d="M0.0 0.0L114.0 0.0L114.0 25.0L0.0 25.0Z" stroke="#ff0080" stroke-width="0.0" stroke-dasharray="none" opacity="1.0" fill="none"/><g id="ProcessOnG1013" transform="matrix(1.0,0.0,0.0,1.0,0.0,3.75)"><text id="ProcessOnText1014" fill="#cc0000" font-weight="normal" font-style="normal" text-decoration="none" font-family="微软雅黑" text-anchor="middle" font-size="14" x="56.0" y="14.350000000000001">*（必填）</text></g></g><g id="ProcessOnG1015" transform="matrix(1.0,0.0,0.0,1.0,436.01171875,221.00390625)" opacity="1.0"><path id="ProcessOnPath1016" d="M0.0 0.0L80.0 0.0L80.0 25.0L0.0 25.0Z" stroke="#323232" stroke-width="0.0" stroke-dasharray="none" opacity="1.0" fill="none"/><g id="ProcessOnG1017" transform="matrix(1.0,0.0,0.0,1.0,0.0,3.75)"><text id="ProcessOnText1018" fill="#000000" font-weight="normal" font-style="normal" text-decoration="none" font-family="微软雅黑" text-anchor="middle" font-size="14" x="39.0" y="14.350000000000001">用户名</text></g></g><g id="ProcessOnG1019" transform="matrix(1.0,0.0,0.0,1.0,430.01171875,295.00390625)" opacity="1.0"><path id="ProcessOnPath1020" d="M0.0 0.0L80.0 0.0L80.0 25.0L0.0 25.0Z" stroke="#323232" stroke-width="0.0" stroke-dasharray="none" opacity="1.0" fill="none"/><g id="ProcessOnG1021" transform="matrix(1.0,0.0,0.0,1.0,0.0,3.75)"><text id="ProcessOnText1022" fill="#000000" font-weight="normal" font-style="normal" text-decoration="none" font-family="微软雅黑" text-anchor="middle" font-size="14" x="39.0" y="14.350000000000001">密码</text></g></g><g id="ProcessOnG1023" transform="matrix(1.0,0.0,0.0,1.0,443.01171875,372.00390625)" opacity="1.0"><path id="ProcessOnPath1024" d="M0.0 0.0L80.0 0.0L80.0 25.0L0.0 25.0Z" stroke="#323232" stroke-width="0.0" stroke-dasharray="none" opacity="1.0" fill="none"/><g id="ProcessOnG1025" transform="matrix(1.0,0.0,0.0,1.0,0.0,3.75)"><text id="ProcessOnText1026" fill="#000000" font-weight="normal" font-style="normal" text-decoration="none" font-family="微软雅黑" text-anchor="middle" font-size="14" x="39.0" y="14.350000000000001">确认密码</text></g></g><g id="ProcessOnG1027" transform="matrix(1.0,0.0,0.0,1.0,430.01171875,449.00390625)" opacity="1.0"><path id="ProcessOnPath1028" d="M0.0 0.0L80.0 0.0L80.0 25.0L0.0 25.0Z" stroke="#323232" stroke-width="0.0" stroke-dasharray="none" opacity="1.0" fill="none"/><g id="ProcessOnG1029" transform="matrix(1.0,0.0,0.0,1.0,0.0,3.75)"><text id="ProcessOnText1030" fill="#000000" font-weight="normal" font-style="normal" text-decoration="none" font-family="微软雅黑" text-anchor="middle" font-size="14" x="39.0" y="14.350000000000001">邮箱</text></g></g><g id="ProcessOnG1031" transform="matrix(1.0,0.0,0.0,1.0,454.51171875,559.25390625)" opacity="1.0"><path id="ProcessOnPath1032" d="M0.5 0.5L282.5 0.5L282.5 25.5L0.5 25.5Z" stroke="#8a8a8a" stroke-width="1.0" stroke-dasharray="none" opacity="1.0" fill="#ffffff"/><g id="ProcessOnG1033" transform="matrix(1.0,0.0,0.0,1.0,10.0,4.2897186279296875)"><text id="ProcessOnText1034" fill="#000000" font-weight="normal" font-style="normal" text-decoration="none" font-family="微软雅黑" text-anchor="start" font-size="14" x="0.0" y="14.350000000000001">仅支持大陆手机号</text></g></g><g id="ProcessOnG1035" transform="matrix(1.0,0.0,0.0,1.0,447.01171875,528.00390625)" opacity="1.0"><path id="ProcessOnPath1036" d="M0.0 0.0L80.0 0.0L80.0 25.0L0.0 25.0Z" stroke="#323232" stroke-width="0.0" stroke-dasharray="none" opacity="1.0" fill="none"/><g id="ProcessOnG1037" transform="matrix(1.0,0.0,0.0,1.0,0.0,3.75)"><text id="ProcessOnText1038" fill="#000000" font-weight="normal" font-style="normal" text-decoration="none" font-family="微软雅黑" text-anchor="middle" font-size="14" x="39.0" y="14.350000000000001">手机号码</text></g></g><g id="ProcessOnG1039" transform="matrix(1.0,0.0,0.0,1.0,454.51171875,611.00390625)" opacity="1.0"><path id="ProcessOnPath1040" d="M0.0 0.0L80.0 0.0L80.0 25.0L0.0 25.0Z" stroke="#323232" stroke-width="0.0" stroke-dasharray="none" opacity="1.0" fill="none"/><g id="ProcessOnG1041" transform="matrix(1.0,0.0,0.0,1.0,0.0,3.75)"><text id="ProcessOnText1042" fill="#000000" font-weight="normal" font-style="normal" text-decoration="none" font-family="微软雅黑" text-anchor="middle" font-size="14" x="39.0" y="14.350000000000001">短信验证码</text></g></g><g id="ProcessOnG1043" transform="matrix(1.0,0.0,0.0,1.0,457.51171875,726.50390625)" opacity="1.0"><path id="ProcessOnPath1044" d="M0.0 4.0Q0.0 0.0 4.0 0.0L276.0 0.0Q280.0 0.0 280.0 4.0L280.0 25.0Q280.0 29.0 276.0 29.0L4.0 29.0Q0.0 29.0 0.0 25.0Z" stroke="#323232" stroke-width="0.0" stroke-dasharray="none" opacity="1.0" fill="#006633"/><g id="ProcessOnG1045" transform="matrix(1.0,0.0,0.0,1.0,0.0,5.75)"><text id="ProcessOnText1046" fill="#ffffff" font-weight="normal" font-style="normal" text-decoration="none" font-family="微软雅黑" text-anchor="middle" font-size="14" x="139.0" y="14.350000000000001">注册</text></g></g><g id="ProcessOnG1047" transform="matrix(1.0,0.0,0.0,1.0,454.51171875,325.00390625)" opacity="1.0"><path id="ProcessOnPath1048" d="M0.5 0.5L282.5 0.5L282.5 24.5L0.5 24.5Z" stroke="#8a8a8a" stroke-width="1.0" stroke-dasharray="none" opacity="1.0" fill="#ffffff"/><g id="ProcessOnG1049" transform="matrix(1.0,0.0,0.0,1.0,10.0,3.75)"><text id="ProcessOnText1050" fill="#000000" font-weight="normal" font-style="normal" text-decoration="none" font-family="微软雅黑" text-anchor="start" font-size="14" x="0.0" y="14.350000000000001">请输入密码</text></g></g><g id="ProcessOnG1051" transform="matrix(1.0,0.0,0.0,1.0,454.51171875,406.00390625)" opacity="1.0"><path id="ProcessOnPath1052" d="M0.5 0.5L282.5 0.5L282.5 24.5L0.5 24.5Z" stroke="#8a8a8a" stroke-width="1.0" stroke-dasharray="none" opacity="1.0" fill="#ffffff"/><g id="ProcessOnG1053" transform="matrix(1.0,0.0,0.0,1.0,10.0,3.75)"><text id="ProcessOnText1054" fill="#000000" font-weight="normal" font-style="normal" text-decoration="none" font-family="微软雅黑" text-anchor="start" font-size="14" x="0.0" y="14.350000000000001">请再次输入密码</text></g></g><g id="ProcessOnG1055" transform="matrix(1.0,0.0,0.0,1.0,454.51171875,484.00390625)" opacity="1.0"><path id="ProcessOnPath1056" d="M0.5 0.5L282.5 0.5L282.5 24.5L0.5 24.5Z" stroke="#8a8a8a" stroke-width="1.0" stroke-dasharray="none" opacity="1.0" fill="#ffffff"/><g id="ProcessOnG1057" transform="matrix(1.0,0.0,0.0,1.0,10.0,3.75)"><text id="ProcessOnText1058" fill="#000000" font-weight="normal" font-style="normal" text-decoration="none" font-family="微软雅黑" text-anchor="start" font-size="14" x="0.0" y="14.350000000000001">请输入邮箱</text></g></g><g id="ProcessOnG1059" transform="matrix(1.0,0.0,0.0,1.0,454.51171875,645.00390625)" opacity="1.0"><path id="ProcessOnPath1060" d="M0.5 0.5L148.5 0.5L148.5 24.5L0.5 24.5Z" stroke="#8a8a8a" stroke-width="1.0" stroke-dasharray="none" opacity="1.0" fill="#ffffff"/></g><g id="ProcessOnG1061" transform="matrix(1.0,0.0,0.0,1.0,736.01171875,331.00390625)" opacity="1.0"><path id="ProcessOnPath1062" d="M0.0 0.0L114.0 0.0L114.0 25.0L0.0 25.0Z" stroke="#ff0080" stroke-width="0.0" stroke-dasharray="none" opacity="1.0" fill="none"/><g id="ProcessOnG1063" transform="matrix(1.0,0.0,0.0,1.0,0.0,3.75)"><text id="ProcessOnText1064" fill="#cc0000" font-weight="normal" font-style="normal" text-decoration="none" font-family="微软雅黑" text-anchor="middle" font-size="14" x="56.0" y="14.350000000000001">*（必填）</text></g></g><g id="ProcessOnG1065" transform="matrix(1.0,0.0,0.0,1.0,737.51171875,406.00390625)" opacity="1.0"><path id="ProcessOnPath1066" d="M0.0 0.0L114.0 0.0L114.0 25.0L0.0 25.0Z" stroke="#ff0080" stroke-width="0.0" stroke-dasharray="none" opacity="1.0" fill="none"/><g id="ProcessOnG1067" transform="matrix(1.0,0.0,0.0,1.0,0.0,3.75)"><text id="ProcessOnText1068" fill="#cc0000" font-weight="normal" font-style="normal" text-decoration="none" font-family="微软雅黑" text-anchor="middle" font-size="14" x="56.0" y="14.350000000000001">*（必填）</text></g></g><g id="ProcessOnG1069" transform="matrix(1.0,0.0,0.0,1.0,617.51171875,642.501953125)" opacity="1.0"><path id="ProcessOnPath1070" d="M0.0 4.0Q0.0 0.0 4.0 0.0L116.0 0.0Q120.0 0.0 120.0 4.0L120.0 26.0Q120.0 30.0 116.0 30.0L4.0 30.0Q0.0 30.0 0.0 26.0Z" stroke="#323232" stroke-width="0.0" stroke-dasharray="none" opacity="1.0" fill="#006633"/><g id="ProcessOnG1071" transform="matrix(1.0,0.0,0.0,1.0,0.0,6.25)"><text id="ProcessOnText1072" fill="#ffffff" font-weight="normal" font-style="normal" text-decoration="none" font-family="微软雅黑" text-anchor="middle" font-size="14" x="59.0" y="14.350000000000001">获取验证码</text></g></g><g id="ProcessOnG1073" transform="matrix(1.0,0.0,0.0,1.0,737.51171875,559.7936248779297)" opacity="1.0"><path id="ProcessOnPath1074" d="M0.0 0.0L114.0 0.0L114.0 25.0L0.0 25.0Z" stroke="#ff0080" stroke-width="0.0" stroke-dasharray="none" opacity="1.0" fill="none"/><g id="ProcessOnG1075" transform="matrix(1.0,0.0,0.0,1.0,0.0,3.75)"><text id="ProcessOnText1076" fill="#cc0000" font-weight="normal" font-style="normal" text-decoration="none" font-family="微软雅黑" text-anchor="middle" font-size="14" x="56.0" y="14.350000000000001">*（必填）</text></g></g></g></g></svg>